<svg width="32" height="40" viewBox="0 0 32 40" fill="none" xmlns="http://www.w3.org/2000/svg">
<path d="M16 35.5002C19.2333 34.5002 21.9333 32.5252 24.1 29.5752C26.2667 26.6252 27.5333 23.3335 27.9 19.7002H16V3.9502L4 8.4502V17.9002C4 18.2669 4 18.5669 4 18.8002C4 19.0335 4.03333 19.3335 4.1 19.7002H16V35.5002ZM16 39.5002C15.7667 39.5002 15.55 39.4835 15.35 39.4502C15.15 39.4169 14.95 39.3669 14.75 39.3002C10.25 37.8002 6.66667 35.0252 4 30.9752C1.33333 26.9252 2.38419e-07 22.5669 2.38419e-07 17.9002V8.4502C2.38419e-07 7.61686 0.241667 6.86686 0.725 6.2002C1.20833 5.53353 1.83333 5.0502 2.6 4.75019L14.6 0.250195C15.0667 0.0835285 15.5333 0.000195503 16 0.000195503C16.4667 0.000195503 16.9333 0.0835285 17.4 0.250195L29.4 4.75019C30.1667 5.0502 30.7917 5.53353 31.275 6.2002C31.7583 6.86686 32 7.61686 32 8.4502V17.9002C32 22.5669 30.6667 26.9252 28 30.9752C25.3333 35.0252 21.75 37.8002 17.25 39.3002C17.05 39.3669 16.85 39.4169 16.65 39.4502C16.45 39.4835 16.2333 39.5002 16 39.5002Z" fill="#F59E0B"/>
</svg>
