<svg width="12" height="12" viewBox="0 0 12 12" fill="none" xmlns="http://www.w3.org/2000/svg">
<path d="M5.83398 8.75016C5.99926 8.75016 6.1378 8.69426 6.24961 8.58245C6.36142 8.47065 6.41732 8.33211 6.41732 8.16683C6.41732 8.00155 6.36142 7.86301 6.24961 7.7512C6.1378 7.6394 5.99926 7.5835 5.83398 7.5835C5.66871 7.5835 5.53016 7.6394 5.41836 7.7512C5.30655 7.86301 5.25065 8.00155 5.25065 8.16683C5.25065 8.33211 5.30655 8.47065 5.41836 8.58245C5.53016 8.69426 5.66871 8.75016 5.83398 8.75016ZM5.83398 6.41683C5.99926 6.41683 6.1378 6.36093 6.24961 6.24912C6.36142 6.13732 6.41732 5.99877 6.41732 5.8335V3.50016C6.41732 3.33489 6.36142 3.19634 6.24961 3.08454C6.1378 2.97273 5.99926 2.91683 5.83398 2.91683C5.66871 2.91683 5.53016 2.97273 5.41836 3.08454C5.30655 3.19634 5.25065 3.33489 5.25065 3.50016V5.8335C5.25065 5.99877 5.30655 6.13732 5.41836 6.24912C5.53016 6.36093 5.66871 6.41683 5.83398 6.41683ZM5.83398 11.6668C5.02704 11.6668 4.26871 11.5137 3.55898 11.2075C2.84926 10.9012 2.2319 10.4856 1.7069 9.96058C1.1819 9.43558 0.766276 8.81822 0.460026 8.1085C0.153776 7.39877 0.000651076 6.64044 0.000651076 5.8335C0.000651076 5.02655 0.153776 4.26822 0.460026 3.5585C0.766276 2.84877 1.1819 2.23141 1.7069 1.70641C2.2319 1.18141 2.84926 0.765788 3.55898 0.459538C4.26871 0.153288 5.02704 0.000162482 5.83398 0.000162482C6.64093 0.000162482 7.39926 0.153288 8.10898 0.459538C8.81871 0.765788 9.43607 1.18141 9.96107 1.70641C10.4861 2.23141 10.9017 2.84877 11.2079 3.5585C11.5142 4.26822 11.6673 5.02655 11.6673 5.8335C11.6673 6.64044 11.5142 7.39877 11.2079 8.1085C10.9017 8.81822 10.4861 9.43558 9.96107 9.96058C9.43607 10.4856 8.81871 10.9012 8.10898 11.2075C7.39926 11.5137 6.64093 11.6668 5.83398 11.6668Z" fill="#EF4444"/>
</svg>
