<svg width="161" height="604" viewBox="0 0 161 604" fill="none" xmlns="http://www.w3.org/2000/svg">
<path d="M-53.3848 1010.23L-53.3848 -422.9L-52.9669 -422.12L160.832 -22.3134L160.832 609.637L160.709 609.868L-53.3848 1010.23ZM-52.8445 -420.038L-52.8445 1007.36L160.291 608.796L160.291 -21.4729L-52.8445 -420.038Z" fill="#A3E635" fill-opacity="0.5"/>
<path d="M-52.9803 937.949L-53.252 936.611L160.421 576.992L160.696 578.33L-52.9803 937.949Z" fill="#A3E635" fill-opacity="0.5"/>
<path d="M-52.9905 866.455L-53.2383 865.082L160.435 545.419L160.686 546.792L-52.9905 866.455Z" fill="#A3E635" fill-opacity="0.5"/>
<path d="M-53.0046 794.963L-53.2285 793.551L160.445 513.847L160.672 515.256L-53.0046 794.963Z" fill="#A3E635" fill-opacity="0.5"/>
<path d="M-53.0178 723.463L-53.2148 722.021L160.461 482.273L160.658 483.718L-53.0178 723.463Z" fill="#A3E635" fill-opacity="0.5"/>
<path d="M-53.034 651.965L-53.2012 650.493L160.475 450.705L160.642 452.18L-53.034 651.965Z" fill="#A3E635" fill-opacity="0.5"/>
<path d="M-53.0493 580.467L-53.1836 578.964L160.49 419.136L160.627 420.635L-53.0493 580.467Z" fill="#A3E635" fill-opacity="0.5"/>
<path d="M-53.0635 508.963L-53.168 507.441L160.508 387.569L160.61 389.091L-53.0635 508.963Z" fill="#A3E635" fill-opacity="0.5"/>
<path d="M-53.0817 437.457L-53.1504 435.919L160.523 356.003L160.595 357.541L-53.0817 437.457Z" fill="#A3E635" fill-opacity="0.5"/>
<path d="M-53.098 365.949L-53.1309 364.403L160.542 324.443L160.578 325.99L-53.098 365.949Z" fill="#A3E635" fill-opacity="0.5"/>
<path d="M-53.1172 292.886V294.438H160.559V292.886H-53.1172Z" fill="#A3E635" fill-opacity="0.5"/>
<path d="M160.542 262.883L-53.1309 222.924L-53.098 221.377L160.578 261.336L160.542 262.883Z" fill="#A3E635" fill-opacity="0.5"/>
<path d="M160.523 231.322L-53.1504 151.407L-53.0817 149.868L160.595 229.784L160.523 231.322Z" fill="#A3E635" fill-opacity="0.5"/>
<path d="M160.508 199.758L-53.168 79.8856L-53.0635 78.3638L160.61 198.236L160.508 199.758Z" fill="#A3E635" fill-opacity="0.5"/>
<path d="M160.49 168.191L-53.1836 8.35992L-53.0493 6.86012L160.627 166.689L160.49 168.191Z" fill="#A3E635" fill-opacity="0.5"/>
<path d="M160.475 136.623L-53.2012 -63.1649L-53.034 -64.6373L160.642 135.148L160.475 136.623Z" fill="#A3E635" fill-opacity="0.5"/>
<path d="M160.461 105.053L-53.2148 -134.695L-53.0178 -136.137L160.658 103.608L160.461 105.053Z" fill="#A3E635" fill-opacity="0.5"/>
<path d="M160.445 73.4785L-53.2285 -206.225L-53.0046 -207.637L160.672 72.0693L160.445 73.4785Z" fill="#A3E635" fill-opacity="0.5"/>
<path d="M160.435 41.9063L-53.2383 -277.757L-52.9905 -279.13L160.686 40.5328L160.435 41.9063Z" fill="#A3E635" fill-opacity="0.5"/>
<path d="M160.421 10.334L-53.252 -349.285L-52.9803 -350.623L160.696 8.99628L160.421 10.334Z" fill="#A3E635" fill-opacity="0.5"/>
<path d="M155.178 -31.4517L155.178 618.779H155.718L155.718 -31.4517H155.178Z" fill="#A3E635" fill-opacity="0.5"/>
<path d="M149.744 -41.6097L149.744 628.938H150.284L150.284 -41.6097H149.744Z" fill="#A3E635" fill-opacity="0.5"/>
<path d="M143.963 -52.4236L143.963 639.75H144.503L144.503 -52.4236H143.963Z" fill="#A3E635" fill-opacity="0.5"/>
<path d="M137.793 -63.9571L137.793 651.285H138.333L138.333 -63.9571H137.793Z" fill="#A3E635" fill-opacity="0.5"/>
<path d="M131.199 -76.2868L131.199 663.617H131.739L131.739 -76.2868H131.199Z" fill="#A3E635" fill-opacity="0.5"/>
<path d="M124.137 -89.4975L124.137 676.826H124.677L124.677 -89.4975H124.137Z" fill="#A3E635" fill-opacity="0.5"/>
<path d="M116.549 -103.688L116.549 691.014H117.089L117.089 -103.688H116.549Z" fill="#A3E635" fill-opacity="0.5"/>
<path d="M108.377 -118.968L108.377 706.293H108.917L108.917 -118.968H108.377Z" fill="#A3E635" fill-opacity="0.5"/>
<path d="M99.5527 -135.471L99.5527 722.795H100.093L100.093 -135.471H99.5527Z" fill="#A3E635" fill-opacity="0.5"/>
<path d="M89.9961 -153.345L89.9961 740.674H90.5364L90.5364 -153.345H89.9961Z" fill="#A3E635" fill-opacity="0.5"/>
<path d="M79.6016 -172.777L79.6016 760.105H80.1418L80.1418 -172.777H79.6016Z" fill="#A3E635" fill-opacity="0.5"/>
<path d="M68.2676 -193.973L68.2676 781.303H68.8079L68.8079 -193.973H68.2676Z" fill="#A3E635" fill-opacity="0.5"/>
<path d="M55.8535 -217.193L55.8535 804.516H56.3938L56.3938 -217.193H55.8535Z" fill="#A3E635" fill-opacity="0.5"/>
<path d="M42.1973 -242.728L42.1973 830.055H42.7375L42.7375 -242.728H42.1973Z" fill="#A3E635" fill-opacity="0.5"/>
<path d="M27.1055 -270.952L27.1055 858.279H27.6458L27.6458 -270.952H27.1055Z" fill="#A3E635" fill-opacity="0.5"/>
<path d="M10.3359 -302.312L10.3359 889.637H10.8762L10.8762 -302.312H10.3359Z" fill="#A3E635" fill-opacity="0.5"/>
</svg>
