<svg width="179" height="604" viewBox="0 0 179 604" fill="none" xmlns="http://www.w3.org/2000/svg">
<path d="M231.581 -422.9L231.581 1010.23L231.129 1009.45L0 609.637L0 -22.3107L0.132296 -22.5414L231.581 -422.9ZM230.997 1007.36L230.997 -420.038L0.584075 -21.4701L0.584075 608.796L230.997 1007.36Z" fill="#A3E635" fill-opacity="0.5"/>
<path d="M231.142 -350.623L231.435 -349.285L0.441424 10.334L0.144531 8.99628L231.142 -350.623Z" fill="#A3E635" fill-opacity="0.5"/>
<path d="M231.153 -279.13L231.421 -277.757L0.427302 41.9062L0.15625 40.5328L231.153 -279.13Z" fill="#A3E635" fill-opacity="0.5"/>
<path d="M231.167 -207.637L231.409 -206.225L0.415172 73.4785L0.169922 72.0693L231.167 -207.637Z" fill="#A3E635" fill-opacity="0.5"/>
<path d="M231.183 -136.137L231.396 -134.695L0.398536 105.053L0.185547 103.608L231.183 -136.137Z" fill="#A3E635" fill-opacity="0.5"/>
<path d="M231.198 -64.6373L231.379 -63.1649L0.38188 136.623L0.201172 135.148L231.198 -64.6373Z" fill="#A3E635" fill-opacity="0.5"/>
<path d="M231.21 6.86012L231.355 8.35992L0.361317 168.191L0.212891 166.689L231.21 6.86012Z" fill="#A3E635" fill-opacity="0.5"/>
<path d="M231.238 78.3638L231.351 79.8856L0.353846 199.758L0.244141 198.236L231.238 78.3638Z" fill="#A3E635" fill-opacity="0.5"/>
<path d="M231.255 149.868L231.329 151.407L0.335256 231.322L0.257813 229.784L231.255 149.868Z" fill="#A3E635" fill-opacity="0.5"/>
<path d="M231.274 221.377L231.31 222.924L0.316065 262.883L0.277344 261.336L231.274 221.377Z" fill="#A3E635" fill-opacity="0.5"/>
<path d="M0.296875 292.886L0.296875 294.438H231.294V292.886H0.296875Z" fill="#A3E635" fill-opacity="0.5"/>
<path d="M0.316065 324.443L231.31 364.403L231.274 365.949L0.277344 325.99L0.316065 324.443Z" fill="#A3E635" fill-opacity="0.5"/>
<path d="M0.335256 356.003L231.329 435.919L231.255 437.457L0.257813 357.541L0.335256 356.003Z" fill="#A3E635" fill-opacity="0.5"/>
<path d="M0.353846 387.569L231.351 507.441L231.238 508.963L0.244141 389.091L0.353846 387.569Z" fill="#A3E635" fill-opacity="0.5"/>
<path d="M0.361317 419.136L231.355 578.964L231.21 580.467L0.212891 420.635L0.361317 419.136Z" fill="#A3E635" fill-opacity="0.5"/>
<path d="M0.38188 450.705L231.379 650.493L231.198 651.965L0.201172 452.18L0.38188 450.705Z" fill="#A3E635" fill-opacity="0.5"/>
<path d="M0.398536 482.273L231.396 722.021L231.183 723.463L0.185547 483.718L0.398536 482.273Z" fill="#A3E635" fill-opacity="0.5"/>
<path d="M0.415172 513.847L231.409 793.551L231.167 794.963L0.169922 515.256L0.415172 513.847Z" fill="#A3E635" fill-opacity="0.5"/>
<path d="M0.427302 545.419L231.421 865.082L231.153 866.455L0.15625 546.792L0.427302 545.419Z" fill="#A3E635" fill-opacity="0.5"/>
<path d="M0.441424 576.992L231.435 936.611L231.142 937.949L0.144531 578.33L0.441424 576.992Z" fill="#A3E635" fill-opacity="0.5"/>
<path d="M5.52539 -31.4517L5.52539 618.779H6.10971L6.10971 -31.4517H5.52539Z" fill="#A3E635" fill-opacity="0.5"/>
<path d="M11.3984 -41.6097L11.3984 628.938H11.9828L11.9828 -41.6097H11.3984Z" fill="#A3E635" fill-opacity="0.5"/>
<path d="M17.6504 -52.4236L17.6504 639.75H18.2347L18.2347 -52.4236H17.6504Z" fill="#A3E635" fill-opacity="0.5"/>
<path d="M24.3262 -63.9571L24.3262 651.285H24.9105L24.9105 -63.9571H24.3262Z" fill="#A3E635" fill-opacity="0.5"/>
<path d="M31.4531 -76.2868L31.4531 663.617H32.0374L32.0374 -76.2868H31.4531Z" fill="#A3E635" fill-opacity="0.5"/>
<path d="M39.0801 -89.4975L39.0801 676.826H39.6644L39.6644 -89.4975H39.0801Z" fill="#A3E635" fill-opacity="0.5"/>
<path d="M47.291 -103.688L47.291 691.014H47.8754L47.8754 -103.688H47.291Z" fill="#A3E635" fill-opacity="0.5"/>
<path d="M56.1191 -118.968L56.1191 706.293H56.7035L56.7035 -118.968H56.1191Z" fill="#A3E635" fill-opacity="0.5"/>
<path d="M65.6602 -135.471L65.6602 722.795H66.2445L66.2445 -135.471H65.6602Z" fill="#A3E635" fill-opacity="0.5"/>
<path d="M75.9941 -153.345L75.9941 740.674H76.5784L76.5784 -153.345H75.9941Z" fill="#A3E635" fill-opacity="0.5"/>
<path d="M87.2344 -172.777L87.2344 760.105H87.8187L87.8187 -172.777H87.2344Z" fill="#A3E635" fill-opacity="0.5"/>
<path d="M99.4863 -193.973L99.4863 781.303H100.071L100.071 -193.973H99.4863Z" fill="#A3E635" fill-opacity="0.5"/>
<path d="M112.906 -217.193L112.906 804.516H113.491L113.491 -217.193H112.906Z" fill="#A3E635" fill-opacity="0.5"/>
<path d="M127.67 -242.728L127.67 830.055H128.254L128.254 -242.728H127.67Z" fill="#A3E635" fill-opacity="0.5"/>
<path d="M143.98 -270.952L143.98 858.279H144.565L144.565 -270.952H143.98Z" fill="#A3E635" fill-opacity="0.5"/>
<path d="M162.109 -302.312L162.109 889.637H162.694L162.694 -302.312H162.109Z" fill="#A3E635" fill-opacity="0.5"/>
</svg>
