<svg width="618" height="705" viewBox="0 0 618 705" fill="none" xmlns="http://www.w3.org/2000/svg">
<path d="M-205 1304.79L-205 -546.211L-203.395 -545.203L617.591 -28.8203L617.591 787.395L617.121 787.693L-205 1304.79ZM-202.925 -542.514L-202.925 1301.09L615.517 786.309L615.517 -27.7347L-202.925 -542.514Z" fill="#A3E635" fill-opacity="0.5"/>
<path d="M-203.486 1119.1L-204.438 1117.32L616.068 704.453L617.031 706.227L-203.486 1119.1Z" fill="#A3E635" fill-opacity="0.5"/>
<path d="M-203.535 1026.76L-204.395 1024.93L616.111 663.674L616.982 665.494L-203.535 1026.76Z" fill="#A3E635" fill-opacity="0.5"/>
<path d="M-203.591 934.41L-204.348 932.548L616.169 622.894L616.926 624.761L-203.591 934.41Z" fill="#A3E635" fill-opacity="0.5"/>
<path d="M-203.647 842.062L-204.289 840.161L616.228 582.118L616.87 584.024L-203.647 842.062Z" fill="#A3E635" fill-opacity="0.5"/>
<path d="M-203.707 749.721L-204.223 747.78L616.283 541.348L616.81 543.285L-203.707 749.721Z" fill="#A3E635" fill-opacity="0.5"/>
<path d="M-203.763 657.365L-204.164 655.4L616.353 500.575L616.742 502.541L-203.763 657.365Z" fill="#A3E635" fill-opacity="0.5"/>
<path d="M-203.834 565.012L-204.098 563.025L616.408 459.807L616.683 461.794L-203.834 565.012Z" fill="#A3E635" fill-opacity="0.5"/>
<path d="M-203.897 472.654L-204.023 470.657L616.482 419.046L616.62 421.044L-203.897 472.654Z" fill="#A3E635" fill-opacity="0.5"/>
<path d="M-203.969 378.285V380.289L616.548 380.289V378.285L-203.969 378.285Z" fill="#A3E635" fill-opacity="0.5"/>
<path d="M616.482 339.531L-204.023 287.921L-203.897 285.923L616.62 337.534L616.482 339.531Z" fill="#A3E635" fill-opacity="0.5"/>
<path d="M616.408 298.77L-204.098 195.552L-203.834 193.565L616.683 296.783L616.408 298.77Z" fill="#A3E635" fill-opacity="0.5"/>
<path d="M616.353 258.002L-204.164 103.177L-203.763 101.212L616.742 256.036L616.353 258.002Z" fill="#A3E635" fill-opacity="0.5"/>
<path d="M616.283 217.234L-204.223 10.799L-203.707 8.86189L616.81 215.294L616.283 217.234Z" fill="#A3E635" fill-opacity="0.5"/>
<path d="M616.228 176.459L-204.289 -81.5834L-203.647 -83.4851L616.87 174.554L616.228 176.459Z" fill="#A3E635" fill-opacity="0.5"/>
<path d="M616.169 135.684L-204.348 -173.97L-203.591 -175.832L616.926 133.817L616.169 135.684Z" fill="#A3E635" fill-opacity="0.5"/>
<path d="M616.111 94.9023L-204.395 -266.358L-203.535 -268.181L616.982 93.0823L616.111 94.9023Z" fill="#A3E635" fill-opacity="0.5"/>
<path d="M616.068 54.125L-204.437 -358.746L-203.486 -360.52L617.031 52.3511L616.068 54.125Z" fill="#A3E635" fill-opacity="0.5"/>
<path d="M616.021 13.3457L-204.484 -451.132L-203.441 -452.86L617.075 11.6179L616.021 13.3457Z" fill="#A3E635" fill-opacity="0.5"/>
<path d="M595.883 -40.6232V799.203H597.957V-40.6232H595.883Z" fill="#A3E635" fill-opacity="0.5"/>
<path d="M575.02 -53.744V812.322H577.094V-53.744H575.02Z" fill="#A3E635" fill-opacity="0.5"/>
<path d="M552.82 -67.7095V826.289H554.895V-67.7095H552.82Z" fill="#A3E635" fill-opacity="0.5"/>
<path d="M529.125 -82.6061V841.188H531.2V-82.6061H529.125Z" fill="#A3E635" fill-opacity="0.5"/>
<path d="M503.805 -98.5328L503.805 857.113H505.879L505.879 -98.5328H503.805Z" fill="#A3E635" fill-opacity="0.5"/>
<path d="M476.688 -115.594L476.688 874.176H478.762L478.762 -115.594H476.688Z" fill="#A3E635" fill-opacity="0.5"/>
<path d="M447.551 -133.922L447.551 892.5H449.625L449.625 -133.922H447.551Z" fill="#A3E635" fill-opacity="0.5"/>
<path d="M416.164 -153.658L416.164 912.234H418.239L418.239 -153.658H416.164Z" fill="#A3E635" fill-opacity="0.5"/>
<path d="M382.281 -174.971L382.281 933.549H384.356L384.356 -174.971H382.281Z" fill="#A3E635" fill-opacity="0.5"/>
<path d="M345.582 -198.06L345.582 956.639H347.657L347.657 -198.06H345.582Z" fill="#A3E635" fill-opacity="0.5"/>
<path d="M305.668 -223.157L305.668 981.736H307.743L307.743 -223.157H305.668Z" fill="#A3E635" fill-opacity="0.5"/>
<path d="M262.148 -250.534L262.148 1009.11H264.223L264.223 -250.534H262.148Z" fill="#A3E635" fill-opacity="0.5"/>
<path d="M214.477 -280.522L214.477 1039.1H216.551L216.551 -280.522H214.477Z" fill="#A3E635" fill-opacity="0.5"/>
<path d="M162.035 -313.503L162.035 1072.08H164.11L164.11 -313.503H162.035Z" fill="#A3E635" fill-opacity="0.5"/>
<path d="M104.082 -349.959L104.082 1108.54H106.157L106.157 -349.959H104.082Z" fill="#A3E635" fill-opacity="0.5"/>
<path d="M39.6875 -390.46L39.6875 1149.04H41.7622L41.7622 -390.46H39.6875Z" fill="#A3E635" fill-opacity="0.5"/>
</svg>
