<svg width="26" height="26" viewBox="0 0 26 26" fill="none" xmlns="http://www.w3.org/2000/svg">
<path fill-rule="evenodd" clip-rule="evenodd" d="M5.41536 21.667H20.582C20.8694 21.667 21.1449 21.7811 21.3481 21.9843C21.5512 22.1875 21.6654 22.463 21.6654 22.7503C21.6654 23.0376 21.5512 23.3132 21.3481 23.5164C21.1449 23.7195 20.8694 23.8337 20.582 23.8337H5.41536C5.12805 23.8337 4.8525 23.7195 4.64933 23.5164C4.44617 23.3132 4.33203 23.0376 4.33203 22.7503C4.33203 22.463 4.44617 22.1875 4.64933 21.9843C4.8525 21.7811 5.12805 21.667 5.41536 21.667ZM4.33203 16.2503L15.1654 5.41699L18.4154 8.66699L7.58203 19.5003H4.33203V16.2503ZM16.2487 4.33366L18.4154 2.16699L21.6654 5.41699L19.4976 7.58474L16.2487 4.33366Z" fill="#0F1117"/>
</svg>
