<svg width="684" height="705" viewBox="0 0 684 705" fill="none" xmlns="http://www.w3.org/2000/svg">
<path d="M889.272 -546.211L889.272 1304.79L887.537 1303.78L0 787.395L0 -28.8168L0.508016 -29.1149L889.272 -546.211ZM887.029 1301.09L887.029 -542.514L2.24285 -27.7312L2.24285 786.309L887.029 1301.09Z" fill="#A3E635" fill-opacity="0.5"/>
<path d="M887.58 -452.86L888.707 -451.132L1.69085 13.3457L0.550781 11.6179L887.58 -452.86Z" fill="#A3E635" fill-opacity="0.5"/>
<path d="M887.627 -360.52L888.655 -358.746L1.63849 54.125L0.597656 52.3511L887.627 -360.52Z" fill="#A3E635" fill-opacity="0.5"/>
<path d="M887.678 -268.181L888.607 -266.358L1.5902 94.9023L0.648438 93.0823L887.678 -268.181Z" fill="#A3E635" fill-opacity="0.5"/>
<path d="M887.739 -175.832L888.557 -173.97L1.52881 135.684L0.710938 133.817L887.739 -175.832Z" fill="#A3E635" fill-opacity="0.5"/>
<path d="M887.799 -83.4851L888.493 -81.5834L1.46345 176.459L0.769531 174.554L887.799 -83.4851Z" fill="#A3E635" fill-opacity="0.5"/>
<path d="M887.849 8.86189L888.407 10.799L1.39027 217.234L0.820313 215.294L887.849 8.86189Z" fill="#A3E635" fill-opacity="0.5"/>
<path d="M887.954 101.212L888.388 103.177L1.35877 258.002L0.9375 256.036L887.954 101.212Z" fill="#A3E635" fill-opacity="0.5"/>
<path d="M888.021 193.565L888.306 195.552L1.28957 298.77L0.992188 296.783L888.021 193.565Z" fill="#A3E635" fill-opacity="0.5"/>
<path d="M888.091 285.923L888.227 287.921L1.21119 339.531L1.0625 337.534L888.091 285.923Z" fill="#A3E635" fill-opacity="0.5"/>
<path d="M1.14063 378.285L1.14062 380.289L888.169 380.289V378.285L1.14063 378.285Z" fill="#A3E635" fill-opacity="0.5"/>
<path d="M1.21119 419.046L888.227 470.657L888.091 472.654L1.0625 421.044L1.21119 419.046Z" fill="#A3E635" fill-opacity="0.5"/>
<path d="M1.28957 459.807L888.306 563.025L888.021 565.012L0.992188 461.794L1.28957 459.807Z" fill="#A3E635" fill-opacity="0.5"/>
<path d="M1.35877 500.577L888.388 655.402L887.954 657.367L0.9375 502.542L1.35877 500.577Z" fill="#A3E635" fill-opacity="0.5"/>
<path d="M1.39027 541.348L888.407 747.78L887.849 749.721L0.820313 543.285L1.39027 541.348Z" fill="#A3E635" fill-opacity="0.5"/>
<path d="M1.46345 582.118L888.493 840.161L887.799 842.062L0.769531 584.024L1.46345 582.118Z" fill="#A3E635" fill-opacity="0.5"/>
<path d="M1.52881 622.894L888.557 932.548L887.739 934.41L0.710938 624.761L1.52881 622.894Z" fill="#A3E635" fill-opacity="0.5"/>
<path d="M1.5902 663.674L888.607 1024.93L887.678 1026.76L0.648438 665.494L1.5902 663.674Z" fill="#A3E635" fill-opacity="0.5"/>
<path d="M1.63849 704.453L888.655 1117.32L887.627 1119.1L0.597656 706.227L1.63849 704.453Z" fill="#A3E635" fill-opacity="0.5"/>
<path d="M21.2148 -40.6232L21.2148 799.203H23.4586L23.4586 -40.6232H21.2148Z" fill="#A3E635" fill-opacity="0.5"/>
<path d="M43.7656 -53.744L43.7656 812.322H46.0094L46.0094 -53.744H43.7656Z" fill="#A3E635" fill-opacity="0.5"/>
<path d="M67.7773 -67.7095L67.7773 826.289H70.0211L70.0211 -67.7095H67.7773Z" fill="#A3E635" fill-opacity="0.5"/>
<path d="M93.4102 -82.6061L93.4102 841.188H95.654L95.654 -82.6061H93.4102Z" fill="#A3E635" fill-opacity="0.5"/>
<path d="M120.781 -98.5328L120.781 857.113H123.025L123.025 -98.5328H120.781Z" fill="#A3E635" fill-opacity="0.5"/>
<path d="M150.07 -115.594L150.07 874.176H152.314L152.314 -115.594H150.07Z" fill="#A3E635" fill-opacity="0.5"/>
<path d="M181.598 -133.922L181.598 892.5H183.842L183.842 -133.922H181.598Z" fill="#A3E635" fill-opacity="0.5"/>
<path d="M215.5 -153.658L215.5 912.234H217.744L217.744 -153.658H215.5Z" fill="#A3E635" fill-opacity="0.5"/>
<path d="M252.133 -174.971L252.133 933.549H254.377L254.377 -174.971H252.133Z" fill="#A3E635" fill-opacity="0.5"/>
<path d="M291.82 -198.06L291.82 956.639H294.064L294.064 -198.06H291.82Z" fill="#A3E635" fill-opacity="0.5"/>
<path d="M334.977 -223.157L334.977 981.736H337.22L337.22 -223.157H334.977Z" fill="#A3E635" fill-opacity="0.5"/>
<path d="M382.023 -250.534L382.023 1009.11H384.267L384.267 -250.534H382.023Z" fill="#A3E635" fill-opacity="0.5"/>
<path d="M433.563 -280.522L433.562 1039.1H435.806L435.806 -280.522H433.563Z" fill="#A3E635" fill-opacity="0.5"/>
<path d="M490.25 -313.503L490.25 1072.08H492.494L492.494 -313.503H490.25Z" fill="#A3E635" fill-opacity="0.5"/>
<path d="M552.883 -349.959L552.883 1108.54H555.127L555.127 -349.959H552.883Z" fill="#A3E635" fill-opacity="0.5"/>
<path d="M622.5 -390.46L622.5 1149.04H624.744L624.744 -390.46H622.5Z" fill="#A3E635" fill-opacity="0.5"/>
</svg>
