<svg width="65" height="65" viewBox="0 0 65 65" fill="none" xmlns="http://www.w3.org/2000/svg">
<path d="M27.8202 25.2494C27.4188 25.2482 27.0224 25.1596 26.6587 24.9896C26.295 24.8197 25.9727 24.5725 25.7142 24.2654C25.4557 23.9582 25.2673 23.5984 25.162 23.211C25.0567 22.8236 25.0371 22.4179 25.1045 22.0222L25.7545 18.2333C25.7796 18.0831 25.7678 17.929 25.72 17.7844C25.6722 17.6398 25.5899 17.509 25.4802 17.4033L22.7275 14.7201C22.3588 14.3609 22.098 13.9057 21.9746 13.4061C21.8512 12.9064 21.87 12.3822 22.029 11.8927C22.188 11.4032 22.4808 10.9679 22.8743 10.6362C23.2678 10.3044 23.7463 10.0894 24.2556 10.0154L28.0601 9.46222C28.2106 9.44037 28.3535 9.38228 28.4766 9.29294C28.5997 9.20361 28.6992 9.0857 28.7666 8.94937L30.4677 5.50437C30.6954 5.04284 31.0477 4.65424 31.4848 4.38252C31.9219 4.1108 32.4263 3.9668 32.9409 3.9668C33.4556 3.9668 33.96 4.1108 34.397 4.38252C34.8341 4.65424 35.1864 5.04284 35.4142 5.50437L37.1159 8.94937C37.1831 9.08583 37.2826 9.20386 37.4057 9.29322C37.5288 9.38258 37.6718 9.44059 37.8224 9.46222L41.6262 10.0154C42.1359 10.0887 42.6149 10.3032 43.009 10.6346C43.4031 10.966 43.6965 11.4012 43.8562 11.8907C44.0158 12.3803 44.0352 12.9047 43.9122 13.4048C43.7892 13.9048 43.5287 14.3604 43.1602 14.7201L40.4042 17.4033C40.2952 17.5093 40.2137 17.6403 40.1667 17.7849C40.1197 17.9296 40.1086 18.0835 40.1345 18.2333L40.7845 22.0222C40.8715 22.5294 40.8148 23.0508 40.6209 23.5274C40.4271 24.0041 40.1037 24.417 39.6874 24.7195C39.2711 25.022 38.7785 25.202 38.2652 25.2391C37.752 25.2762 37.2386 25.169 36.7831 24.9296L33.3797 23.1395C33.245 23.0687 33.0951 23.0318 32.9429 23.0318C32.7907 23.0318 32.6408 23.0687 32.5061 23.1395L29.104 24.9283C28.7085 25.1381 28.2679 25.2483 27.8202 25.2494ZM32.9429 5.78452C32.7677 5.78217 32.5955 5.82986 32.4466 5.92197C32.2976 6.01408 32.178 6.14679 32.1018 6.30452L30.4007 9.74952C30.2028 10.1505 29.9103 10.4973 29.5485 10.7601C29.1867 11.0229 28.7665 11.1939 28.324 11.2582L24.5195 11.8113C24.3462 11.8364 24.1834 11.9095 24.0495 12.0223C23.9156 12.1351 23.8159 12.2832 23.7618 12.4497C23.7077 12.6163 23.7013 12.7946 23.7433 12.9646C23.7853 13.1346 23.8741 13.2895 23.9995 13.4116L26.7523 16.0948C27.0726 16.4069 27.3121 16.7922 27.4503 17.2176C27.5884 17.6429 27.621 18.0955 27.5453 18.5362L26.8953 22.3244C26.8655 22.497 26.8847 22.6744 26.9506 22.8367C27.0165 22.9989 27.1265 23.1394 27.2681 23.2424C27.4098 23.3453 27.5774 23.4066 27.7521 23.4192C27.9267 23.4318 28.1014 23.3953 28.2564 23.3137L31.6591 21.5249C32.0549 21.3168 32.4954 21.208 32.9425 21.208C33.3897 21.208 33.8302 21.3168 34.226 21.5249L37.6281 23.3137C37.7832 23.3961 37.9583 23.4333 38.1335 23.4211C38.3086 23.4089 38.4769 23.3478 38.6191 23.2447C38.7613 23.1417 38.8717 23.0008 38.9378 22.8381C39.0039 22.6754 39.0231 22.4974 38.9931 22.3244L38.3431 18.5362C38.2674 18.0955 38.3001 17.6429 38.4382 17.2176C38.5764 16.7923 38.8159 16.407 39.1361 16.0948L41.8888 13.4116C42.0143 13.2895 42.103 13.1346 42.1451 12.9646C42.1871 12.7946 42.1806 12.6163 42.1265 12.4497C42.0724 12.2832 41.9728 12.1351 41.8389 12.0223C41.7049 11.9095 41.5421 11.8364 41.3688 11.8113L37.565 11.2582C37.1219 11.1945 36.7009 11.0238 36.3385 10.7609C35.9761 10.4981 35.6832 10.151 35.485 9.74952L33.7833 6.30452C33.7072 6.14684 33.5878 6.01415 33.4389 5.92204C33.29 5.82993 33.1179 5.78222 32.9429 5.78452ZM60.0264 61.0345H4.97142C4.82075 61.0345 4.67244 60.9971 4.53981 60.9256C4.40717 60.8541 4.29436 60.7508 4.2115 60.625C4.12863 60.4991 4.07831 60.3547 4.06505 60.2046C4.05179 60.0545 4.07601 59.9035 4.13552 59.7651L7.08782 52.9017C7.15819 52.7384 7.27486 52.5993 7.42341 52.5016C7.57197 52.4038 7.7459 52.3518 7.92372 52.3518H57.0741C57.2519 52.3518 57.4259 52.4038 57.5744 52.5016C57.723 52.5993 57.8397 52.7384 57.91 52.9017L60.8623 59.7651C60.9218 59.9035 60.9461 60.0545 60.9328 60.2046C60.9195 60.3547 60.8692 60.4991 60.7864 60.625C60.7035 60.7508 60.5907 60.8541 60.458 60.9256C60.3254 60.9971 60.1771 61.0345 60.0264 61.0345ZM6.35657 59.2145H58.6439L56.4748 54.1718H8.52562L6.35657 59.2145Z" fill="url(#paint0_linear_879_3571)"/>
<path d="M40.6898 54.1721H25.1938C24.9667 54.172 24.7478 54.087 24.5801 53.9338C24.4125 53.7806 24.3082 53.5702 24.2877 53.344L22.3689 32.1403C22.3576 32.0145 22.3725 31.8876 22.4129 31.7678C22.4533 31.6481 22.5181 31.538 22.6034 31.4447C22.6886 31.3514 22.7924 31.2768 22.908 31.2258C23.0236 31.1748 23.1486 31.1485 23.275 31.1484H42.6099C42.7363 31.1485 42.8613 31.1748 42.977 31.2258C43.0926 31.2768 43.1963 31.3514 43.2816 31.4447C43.3668 31.538 43.4317 31.6481 43.4721 31.7678C43.5124 31.8876 43.5274 32.0145 43.516 32.1403L41.5998 53.344C41.5793 53.5709 41.4745 53.7818 41.306 53.9351C41.1375 54.0885 40.9176 54.173 40.6898 54.1721ZM26.0239 52.3521H39.8598L41.6148 32.9684H24.2715L26.0239 52.3521Z" fill="url(#paint1_linear_879_3571)"/>
<path d="M56.779 54.172H40.8884C40.6471 54.172 40.4156 54.0762 40.2449 53.9055C40.0743 53.7348 39.9784 53.5034 39.9784 53.262C39.9784 53.0207 40.0743 52.7892 40.2449 52.6186C40.4156 52.4479 40.6471 52.352 40.8884 52.352H55.8118L55.3321 44.4305H41.5729C41.3315 44.4305 41.1001 44.3346 40.9294 44.1639C40.7587 43.9933 40.6629 43.7618 40.6629 43.5205C40.6629 43.2791 40.7587 43.0477 40.9294 42.877C41.1001 42.7064 41.3315 42.6105 41.5729 42.6105H56.1888C56.4209 42.6101 56.6445 42.6984 56.8137 42.8574C56.9828 43.0164 57.0848 43.2341 57.0988 43.4659L57.689 53.2068C57.6965 53.3308 57.6786 53.4551 57.6362 53.572C57.5939 53.6889 57.528 53.7958 57.4428 53.8863C57.3575 53.9767 57.2546 54.0487 57.1405 54.0979C57.0263 54.147 56.9033 54.1723 56.779 54.172ZM24.9972 54.172H9.10667C8.98375 54.1721 8.86209 54.1474 8.74901 54.0992C8.63594 54.051 8.5338 53.9804 8.44876 53.8916C8.36372 53.8029 8.29754 53.6978 8.25421 53.5828C8.21089 53.4678 8.19131 53.3452 8.19667 53.2224L8.78686 39.497C8.79692 39.2625 8.89722 39.0409 9.0668 38.8786C9.23638 38.7163 9.46213 38.6258 9.69686 38.626H23.9527C24.194 38.626 24.4255 38.7219 24.5961 38.8925C24.7668 39.0632 24.8627 39.2946 24.8627 39.536C24.8627 39.7773 24.7668 40.0088 24.5961 40.1794C24.4255 40.3501 24.194 40.446 23.9527 40.446H10.5685L10.0563 52.352H24.9972C25.2386 52.352 25.47 52.4479 25.6407 52.6186C25.8113 52.7892 25.9072 53.0207 25.9072 53.262C25.9072 53.5034 25.8113 53.7348 25.6407 53.9055C25.47 54.0762 25.2386 54.172 24.9972 54.172Z" fill="url(#paint2_linear_879_3571)"/>
<defs>
<linearGradient id="paint0_linear_879_3571" x1="4.06152" y1="32.5007" x2="60.9363" y2="32.5007" gradientUnits="userSpaceOnUse">
<stop stop-color="#6A3CFF"/>
<stop offset="0.4" stop-color="#B000FF"/>
<stop offset="0.75" stop-color="#FF1AAE"/>
<stop offset="1" stop-color="#FF4FA3"/>
</linearGradient>
<linearGradient id="paint1_linear_879_3571" x1="22.3652" y1="42.6603" x2="43.5197" y2="42.6603" gradientUnits="userSpaceOnUse">
<stop stop-color="#6A3CFF"/>
<stop offset="0.4" stop-color="#B000FF"/>
<stop offset="0.75" stop-color="#FF1AAE"/>
<stop offset="1" stop-color="#FF4FA3"/>
</linearGradient>
<linearGradient id="paint2_linear_879_3571" x1="8.1958" y1="46.399" x2="57.6906" y2="46.399" gradientUnits="userSpaceOnUse">
<stop stop-color="#6A3CFF"/>
<stop offset="0.4" stop-color="#B000FF"/>
<stop offset="0.75" stop-color="#FF1AAE"/>
<stop offset="1" stop-color="#FF4FA3"/>
</linearGradient>
</defs>
</svg>
