<svg width="21" height="20" viewBox="0 0 21 20" fill="none" xmlns="http://www.w3.org/2000/svg">
<g clip-path="url(#clip0_361_957)">
<path d="M17.2912 16.9012H14.2843V12.2984C14.2843 11.2009 14.2642 9.78796 12.7204 9.78796C11.1543 9.78796 10.9147 10.9838 10.9147 12.2185V16.9009H7.90779V7.43576H10.7944V8.72927H10.8348C11.1237 8.24647 11.5411 7.8493 12.0427 7.58006C12.5442 7.31081 13.1111 7.17958 13.6829 7.20032C16.7305 7.20032 17.2924 9.15973 17.2924 11.7088L17.2912 16.9012ZM4.51503 6.14194C4.16991 6.142 3.83252 6.04203 3.54553 5.85466C3.25854 5.6673 3.03486 5.40096 2.90273 5.08933C2.7706 4.77769 2.73598 4.43476 2.80325 4.10389C2.87051 3.77303 3.03665 3.46909 3.28064 3.23052C3.52463 2.99194 3.83552 2.82944 4.17399 2.76357C4.51247 2.6977 4.86331 2.73142 5.18218 2.86045C5.50105 2.98949 5.77361 3.20805 5.9654 3.4885C6.15719 3.76895 6.25959 4.0987 6.25965 4.43603C6.25969 4.66002 6.21459 4.88181 6.12694 5.08876C6.03929 5.29571 5.9108 5.48376 5.7488 5.64216C5.5868 5.80057 5.39445 5.92624 5.18276 6.01199C4.97107 6.09774 4.74418 6.1419 4.51503 6.14194ZM6.01847 16.9012H3.00845V7.43576H6.01847V16.9012ZM18.7902 0.00135143H1.4975C1.105 -0.00297804 0.726782 0.145182 0.445987 0.413275C0.165192 0.681368 0.0047902 1.04746 0 1.4311V18.4041C0.00462626 18.788 0.164934 19.1543 0.44572 19.4227C0.726505 19.691 1.1048 19.8395 1.4975 19.8354H18.7902C19.1837 19.8402 19.5631 19.6922 19.845 19.4238C20.1269 19.1555 20.2882 18.7887 20.2937 18.4041V1.42988C20.2881 1.04547 20.1266 0.678966 19.8447 0.41088C19.5628 0.142794 19.1835 -0.00494354 18.7902 0.000126304" fill="white"/>
</g>
<defs>
<clipPath id="clip0_361_957">
<rect width="21" height="20" fill="white"/>
</clipPath>
</defs>
</svg>
