<svg width="764" height="269" viewBox="0 0 764 269" fill="none" xmlns="http://www.w3.org/2000/svg">
<circle cx="1" cy="202" r="1" fill="white" fill-opacity="0.72"/>
<circle cx="141" cy="268" r="1" fill="white" fill-opacity="0.72"/>
<circle cx="403" cy="38" r="1" fill="white" fill-opacity="0.72"/>
<circle cx="250" cy="21" r="1" fill="white" fill-opacity="0.72"/>
<circle cx="33" cy="118" r="1" fill="#949494"/>
<circle cx="132" cy="143" r="1" fill="#949494"/>
<circle cx="122" cy="71" r="1" fill="#949494"/>
<circle cx="31" cy="37" r="1" fill="#949494"/>
<circle cx="94" cy="40" r="1" fill="#949494"/>
<circle cx="81" cy="89" r="1" fill="#949494"/>
<circle cx="209" cy="133" r="1" fill="#949494"/>
<circle cx="263" cy="53" r="1" fill="#949494"/>
<circle cx="280" cy="91" r="1" fill="#949494"/>
<circle cx="353" cy="51" r="1" fill="#949494"/>
<circle cx="367" cy="91" r="1" fill="#949494"/>
<circle cx="279" cy="211" r="1" fill="#949494"/>
<circle cx="308" cy="244" r="1" fill="#949494"/>
<circle cx="400" cy="201" r="1" fill="#949494"/>
<circle cx="84" cy="149" r="2" fill="white" fill-opacity="0.72"/>
<circle cx="226" cy="170" r="2" fill="white" fill-opacity="0.72"/>
<circle cx="319" cy="116" r="2" fill="white" fill-opacity="0.72"/>
<circle cx="177" cy="56" r="2" fill="white" fill-opacity="0.72"/>
<circle cx="1" cy="1" r="1" transform="matrix(-1 0 0 1 764 181)" fill="white" fill-opacity="0.82"/>
<circle cx="1" cy="1" r="1" transform="matrix(-1 0 0 1 624 247)" fill="white" fill-opacity="0.82"/>
<circle cx="1" cy="1" r="1" transform="matrix(-1 0 0 1 362 17)" fill="white" fill-opacity="0.82"/>
<circle cx="1" cy="1" r="1" transform="matrix(-1 0 0 1 515 0)" fill="white" fill-opacity="0.82"/>
<circle cx="1" cy="1" r="1" transform="matrix(-1 0 0 1 732 97)" fill="#949494"/>
<circle cx="1" cy="1" r="1" transform="matrix(-1 0 0 1 633 122)" fill="#949494"/>
<circle cx="1" cy="1" r="1" transform="matrix(-1 0 0 1 556 112)" fill="#949494"/>
<circle cx="1" cy="1" r="1" transform="matrix(-1 0 0 1 502 32)" fill="#949494"/>
<circle cx="1" cy="1" r="1" transform="matrix(-1 0 0 1 485 70)" fill="#949494"/>
<circle cx="1" cy="1" r="1" transform="matrix(-1 0 0 1 476 131)" fill="#949494"/>
<circle cx="1" cy="1" r="1" transform="matrix(-1 0 0 1 580 62)" fill="#949494"/>
<circle cx="1" cy="1" r="1" transform="matrix(-1 0 0 1 651 62)" fill="#949494"/>
<circle cx="1" cy="1" r="1" transform="matrix(-1 0 0 1 718 28)" fill="#949494"/>
<circle cx="1" cy="1" r="1" transform="matrix(-1 0 0 1 590 199)" fill="#949494"/>
<circle cx="1" cy="1" r="1" transform="matrix(-1 0 0 1 412 30)" fill="#949494"/>
<circle cx="1" cy="1" r="1" transform="matrix(-1 0 0 1 398 70)" fill="#949494"/>
<circle cx="1" cy="1" r="1" transform="matrix(-1 0 0 1 486 190)" fill="#949494"/>
<circle cx="1" cy="1" r="1" transform="matrix(-1 0 0 1 457 223)" fill="#949494"/>
<circle cx="1" cy="1" r="1" transform="matrix(-1 0 0 1 463 253)" fill="#949494"/>
<circle cx="2" cy="2" r="2" transform="matrix(-1 0 0 1 682 127)" fill="white" fill-opacity="0.82"/>
<circle cx="2" cy="2" r="2" transform="matrix(-1 0 0 1 540 148)" fill="white" fill-opacity="0.82"/>
<circle cx="2" cy="2" r="2" transform="matrix(-1 0 0 1 447 94)" fill="white" fill-opacity="0.82"/>
<circle cx="2" cy="2" r="2" transform="matrix(-1 0 0 1 388 134)" fill="white" fill-opacity="0.82"/>
</svg>
