<svg width="48" height="40" viewBox="0 0 48 40" fill="none" xmlns="http://www.w3.org/2000/svg">
<g clip-path="url(#clip0_372_2351)">
<path d="M47.7815 20.9792C47.6711 20.5646 47.294 20.2771 46.8648 20.2771H35.9022L35.9043 1.10219C35.9043 0.579273 35.4793 0.154297 34.9564 0.154297H1.13344C0.610523 0.154297 0.185547 0.5793 0.185547 1.10219V34.7459C0.185547 37.5584 2.47307 39.8459 5.28555 39.8459H39.1063C41.5376 39.8459 43.1751 38.7876 43.9751 36.7022C44.6251 35.0105 44.6605 32.8813 44.698 30.6291C44.7584 27.125 44.8189 23.5022 47.3376 22.0457C47.7084 21.8311 47.8897 21.3936 47.7793 20.979L47.7815 20.9792ZM31.3127 2.05014H34.0065V10.6795H31.3127V2.05014ZM31.3127 12.5771H34.0065V20.7685H31.3127V12.5771ZM31.3127 22.6645H34.0065V30.856H31.3127V22.6645ZM6.51061 2.05014H29.4167V6.97723H6.51061V2.05014ZM6.51061 8.8752H29.4167V28.6L6.51061 28.5979V8.8752ZM2.08144 2.05014H4.61269V10.6795H2.08144V2.05014ZM2.08144 12.5771H4.61269V20.7685H2.08144V12.5771ZM2.08144 22.6645H4.61269V30.856H2.08144V22.6645ZM5.2856 37.9499C3.51893 37.9499 2.08144 36.5124 2.08144 34.7457V32.7519H4.61269V34.4728C4.61269 35.5811 5.08977 36.8811 5.8856 37.9499H5.2856ZM9.03557 37.9499C7.97306 37.9499 6.50848 35.9353 6.50848 34.4728V30.4957H29.4146V34.4728C29.4146 35.5811 29.8917 36.8811 30.6875 37.9499H9.03557ZM33.8398 37.9499C32.7773 37.9499 31.3127 35.9353 31.3127 34.4728V32.7519H34.0065V34.7457C34.0065 35.9582 34.4315 37.0728 35.1419 37.9499H33.8398ZM42.8046 30.5979C42.7171 35.7104 42.3421 37.9499 39.1088 37.9499C37.3421 37.9499 35.9046 36.5124 35.9046 34.7457V22.1729H44.471C42.9106 24.425 42.8565 27.6604 42.8064 30.598L42.8046 30.5979ZM23.0068 16.3749L15.0004 11.752C14.1462 11.2583 13.1275 11.2583 12.2733 11.752C11.4191 12.2458 10.9108 13.127 10.9108 14.1124V23.3562C10.9108 24.3416 11.4212 25.2249 12.2733 25.7166C12.7004 25.9624 13.1691 26.0853 13.6358 26.0853C14.1045 26.0853 14.5712 25.9624 14.9983 25.7166L23.0047 21.0937C23.8589 20.5999 24.3672 19.7187 24.3672 18.7332C24.3672 17.7478 23.8568 16.8645 23.0047 16.3728L23.0068 16.3749ZM22.0589 19.4541L14.0525 24.077C13.6775 24.2937 13.3483 24.1499 13.2233 24.077C13.0983 24.0041 12.8087 23.7916 12.8087 23.3582V14.1145C12.8087 13.6833 13.0983 13.4687 13.2233 13.3957C13.2983 13.352 13.4504 13.2812 13.6421 13.2812C13.765 13.2812 13.9066 13.3103 14.0525 13.3957L22.0589 18.0187C22.4339 18.2353 22.4734 18.5937 22.4734 18.7374C22.4734 18.8812 22.4339 19.2395 22.0589 19.4562L22.0589 19.4541Z" fill="url(#paint0_linear_372_2351)"/>
</g>
<defs>
<linearGradient id="paint0_linear_372_2351" x1="23.9985" y1="0.154297" x2="23.9985" y2="39.8459" gradientUnits="userSpaceOnUse">
<stop stop-color="white" stop-opacity="0.9"/>
<stop offset="1" stop-color="white" stop-opacity="0.7"/>
</linearGradient>
<clipPath id="clip0_372_2351">
<rect width="48" height="40" fill="white"/>
</clipPath>
</defs>
</svg>
