<svg width="52" height="32" viewBox="0 0 52 32" fill="none" xmlns="http://www.w3.org/2000/svg">
<path d="M47.5996 0.280273H3.59961C1.94963 0.280273 0.599609 1.63029 0.599609 3.28027V28.7203C0.599609 30.3703 1.94963 31.7203 3.59961 31.7203H47.5996C49.2496 31.7203 50.5996 30.3703 50.5996 28.7203V3.28027C50.5996 1.63029 49.2496 0.280273 47.5996 0.280273ZM48.5996 28.7206C48.5996 29.2706 48.1496 29.7206 47.5996 29.7206H3.59961C3.04961 29.7206 2.59961 29.2706 2.59961 28.7206V3.28059C2.59961 2.73059 3.04961 2.28059 3.59961 2.28059H47.5996C48.1496 2.28059 48.5996 2.73059 48.5996 3.28059V28.7206Z" fill="url(#paint0_linear_372_2359)"/>
<path d="M45.5992 7.87001C44.1692 7.87001 43.0193 6.71001 43.0193 5.29004C43.0193 4.74004 42.5693 4.29004 42.0193 4.29004H9.17958C8.62957 4.29004 8.17958 4.74004 8.17958 5.29004C8.17958 6.72006 7.01958 7.87001 5.59961 7.87001C5.04961 7.87001 4.59961 8.32 4.59961 8.87001V23.1401C4.59961 23.6901 5.04961 24.1401 5.59961 24.1401C7.02963 24.1401 8.17958 25.3001 8.17958 26.7201C8.17958 27.2701 8.62957 27.7201 9.17958 27.7201H42.0097C42.5597 27.7201 43.0097 27.2701 43.0097 26.7201C43.0097 25.29 44.1697 24.1401 45.5896 24.1401C46.1396 24.1401 46.5896 23.6901 46.5896 23.1401V8.87001C46.5896 8.32 46.1396 7.87001 45.5896 7.87001H45.5992ZM44.5992 22.2399C42.8692 22.6299 41.5092 23.9899 41.1292 25.7199H10.079C9.68897 23.9899 8.32895 22.6299 6.60895 22.2399V9.75993C8.33894 9.36992 9.69894 8.00991 10.079 6.27993H41.1292C41.5192 8.00991 42.8792 9.36991 44.5992 9.75993V22.2399Z" fill="url(#paint1_linear_372_2359)"/>
<path d="M27.3703 13.3105C27.3703 13.8605 27.8203 14.3105 28.3703 14.3105C28.9203 14.3105 29.3703 13.8605 29.3703 13.3105C29.3703 11.5805 28.1902 10.1405 26.6003 9.70051V9.02051C26.6003 8.4705 26.1503 8.02051 25.6003 8.02051C25.0503 8.02051 24.6003 8.4705 24.6003 9.02051V9.70051C23.0103 10.1405 21.8303 11.5905 21.8303 13.3105V13.4605C21.8303 14.6005 22.4603 15.6205 23.4803 16.1305L24.5903 16.6905V20.1405C24.1303 19.8205 23.8203 19.2905 23.8203 18.6905V18.3705C23.8203 17.8205 23.3703 17.3705 22.8203 17.3705C22.2703 17.3705 21.8203 17.8205 21.8203 18.3705V18.6905C21.8203 20.4205 23.0003 21.8605 24.5903 22.3005V22.9805C24.5903 23.5305 25.0403 23.9805 25.5903 23.9805C26.1403 23.9805 26.5903 23.5305 26.5903 22.9805V22.3005C28.1803 21.8605 29.3603 20.4105 29.3603 18.6905C29.3603 17.5505 28.7303 16.5305 27.7103 16.0205L26.6003 15.4605V11.8605C27.0603 12.1805 27.3703 12.7105 27.3703 13.3105ZM26.8203 17.8005C27.1603 17.9705 27.3703 18.3105 27.3703 18.6805C27.3703 19.2805 27.0703 19.8105 26.6003 20.1305V17.6805L26.8203 17.7905L26.8203 17.8005ZM24.3803 14.3505C24.0403 14.1805 23.8303 13.8405 23.8303 13.4705V13.3205C23.8303 12.7205 24.1303 12.1905 24.6002 11.8705V14.4705L24.3802 14.3605L24.3803 14.3505Z" fill="url(#paint2_linear_372_2359)"/>
<defs>
<linearGradient id="paint0_linear_372_2359" x1="25.5996" y1="0.280273" x2="25.5996" y2="31.7203" gradientUnits="userSpaceOnUse">
<stop stop-color="white" stop-opacity="0.9"/>
<stop offset="1" stop-color="white" stop-opacity="0.7"/>
</linearGradient>
<linearGradient id="paint1_linear_372_2359" x1="25.5946" y1="4.29004" x2="25.5946" y2="27.7201" gradientUnits="userSpaceOnUse">
<stop stop-color="white" stop-opacity="0.9"/>
<stop offset="1" stop-color="white" stop-opacity="0.7"/>
</linearGradient>
<linearGradient id="paint2_linear_372_2359" x1="25.5953" y1="8.02051" x2="25.5953" y2="23.9805" gradientUnits="userSpaceOnUse">
<stop stop-color="white" stop-opacity="0.9"/>
<stop offset="1" stop-color="white" stop-opacity="0.7"/>
</linearGradient>
</defs>
</svg>
