<svg width="54" height="48" viewBox="0 0 54 48" fill="none" xmlns="http://www.w3.org/2000/svg">
<g clip-path="url(#clip0_372_2355)">
<path d="M22.8864 4.44278L25.4827 2.94501C26.2702 2.4884 27.1724 2.39575 27.9886 2.61193C28.8026 2.83031 29.5372 3.36191 29.9938 4.15386L43.6834 27.867C44.14 28.6545 44.2326 29.5567 44.0165 30.3729C43.7981 31.1868 43.2665 31.9236 42.4811 32.378L39.8187 33.9111C39.0312 34.3677 38.129 34.4604 37.3128 34.242C36.5584 34.039 35.8701 33.5714 35.4113 32.8743L17.6451 36.1258L20.5988 41.2434C21.0554 42.0331 21.1481 42.9375 20.9297 43.7537C20.7113 44.5677 20.1775 45.3066 19.3855 45.7611L16.7186 47.303C15.9289 47.7596 15.0245 47.8523 14.2083 47.6339C13.3899 47.4155 12.6554 46.8839 12.1988 46.0942L9.00687 40.564L8.93187 40.6081C8.162 41.025 7.29072 41.1066 6.50098 40.8949C5.68701 40.6765 4.94804 40.1449 4.49141 39.3529L0.445805 32.3449C-0.0130185 31.5553 -0.105664 30.653 0.112719 29.8369C0.331102 29.0207 0.862705 28.2839 1.65245 27.8273L8.90779 23.6383L21.5188 8.80574C21.1482 8.06236 21.082 7.23292 21.285 6.47853C21.5034 5.66457 22.035 4.92779 22.8203 4.47337L22.8843 4.43808L22.8864 4.44278ZM43.6659 21.0022C43.0482 21.0574 42.499 20.6007 42.4438 19.9831C42.3886 19.3654 42.8453 18.8162 43.4629 18.761L51.8539 17.9823C52.4716 17.9272 53.0208 18.3838 53.076 19.0015C53.1311 19.6191 52.6745 20.1684 52.0568 20.2235L43.6659 21.0022ZM37.7675 8.90057C37.4102 9.40572 36.7087 9.52705 36.2014 9.16969C35.6962 8.81234 35.5749 8.11086 35.9322 7.60353L40.8028 0.725413C41.1602 0.220267 41.8617 0.098929 42.369 0.456297C42.8741 0.813649 42.9955 1.51512 42.6381 2.02245L37.7675 8.90057ZM40.7675 15.0417C40.2293 15.3506 39.541 15.1653 39.2322 14.627C38.9234 14.0888 39.1087 13.4006 39.6469 13.0917L46.944 8.8785C47.4823 8.56967 48.1705 8.75497 48.4794 9.29321C48.7882 9.83145 48.6029 10.5197 48.0646 10.8285L40.7675 15.0417ZM15.4597 36.849L10.9596 39.4453L14.1515 44.9711C14.2971 45.2182 14.5331 45.388 14.7956 45.4586C15.0581 45.5292 15.3449 45.5005 15.5942 45.3571L18.2699 43.8152C18.517 43.674 18.6846 43.438 18.7552 43.1733C18.8258 42.9108 18.7971 42.6218 18.6537 42.3747L15.4619 36.8468L15.4597 36.849ZM14.3324 34.8968L11.1119 29.3181C10.8008 28.7799 10.9839 28.0894 11.5222 27.7784C12.0604 27.4674 12.7509 27.6505 13.0619 28.1887L16.4523 34.0588L34.2118 30.8074L22.7149 10.8885L10.5054 25.249C10.4238 25.346 10.3245 25.4298 10.2098 25.496L2.78677 29.782C2.5375 29.9254 2.36765 30.1614 2.29706 30.4239C2.22647 30.6864 2.25515 30.9732 2.39853 31.2203L6.44634 38.2373C6.58752 38.4821 6.82355 38.6498 7.08824 38.7204C7.33751 38.7866 7.61104 38.7667 7.8471 38.6454L14.3322 34.8998L14.3324 34.8968ZM26.608 4.89229L23.95 6.42761C23.7029 6.57099 23.533 6.80482 23.4647 7.06511C23.3941 7.3276 23.4227 7.61658 23.5639 7.86366L37.2558 31.5745C37.3992 31.8216 37.633 31.9914 37.8933 32.0598C38.1536 32.1304 38.4425 32.1017 38.6874 31.9606L41.3984 30.3944C41.619 30.2488 41.769 30.0304 41.833 29.7878C41.8969 29.5429 41.8771 29.276 41.758 29.0422L28.0396 5.27375C27.8984 5.0289 27.6624 4.86125 27.4021 4.79066C27.1418 4.72228 26.8528 4.74875 26.6057 4.89213L26.608 4.89229Z" fill="url(#paint0_linear_372_2355)"/>
</g>
<defs>
<linearGradient id="paint0_linear_372_2355" x1="26.5402" y1="0.250977" x2="26.5402" y2="47.7467" gradientUnits="userSpaceOnUse">
<stop stop-color="white" stop-opacity="0.9"/>
<stop offset="1" stop-color="white" stop-opacity="0.7"/>
</linearGradient>
<clipPath id="clip0_372_2355">
<rect width="53.0829" height="48" fill="white"/>
</clipPath>
</defs>
</svg>
