<svg width="24" height="24" viewBox="0 0 24 24" fill="none" xmlns="http://www.w3.org/2000/svg">
<path d="M12 2C12.556 2 13.1 2.044 13.632 2.132L11.76 4.004C10.1994 4.05083 8.68658 4.55331 7.40807 5.44948C6.12956 6.34566 5.14123 7.59637 4.56491 9.04743C3.9886 10.4985 3.84948 12.0865 4.16472 13.6156C4.47996 15.1448 5.23577 16.5483 6.33899 17.6531C7.44221 18.758 8.84461 19.5158 10.3733 19.8333C11.902 20.1507 13.4902 20.0139 14.9421 19.4397C16.394 18.8655 17.6461 17.879 18.5442 16.6018C19.4422 15.3246 19.9469 13.8125 19.996 12.252L21.87 10.38C21.9567 10.9067 22 11.4467 22 12C22 13.9778 21.4135 15.9112 20.3147 17.5557C19.2159 19.2002 17.6541 20.4819 15.8268 21.2388C13.9996 21.9957 11.9889 22.1937 10.0491 21.8079C8.10929 21.422 6.32746 20.4696 4.92894 19.0711C3.53041 17.6725 2.578 15.8907 2.19215 13.9509C1.8063 12.0111 2.00433 10.0004 2.76121 8.17317C3.51809 6.3459 4.79981 4.78412 6.4443 3.6853C8.08879 2.58649 10.0222 2 12 2ZM20.882 3.124C20.5265 2.76848 20.1045 2.48646 19.64 2.29405C19.1756 2.10164 18.6777 2.00261 18.175 2.00261C17.6723 2.00261 17.1744 2.10164 16.71 2.29405C16.2455 2.48646 15.8235 2.76848 15.468 3.124L10.3 8.292C10.1912 8.40111 10.109 8.5339 10.06 8.68L8.092 14.52C8.02668 14.714 8.0168 14.9224 8.06346 15.1217C8.11012 15.3211 8.21147 15.5034 8.35612 15.6483C8.50077 15.7931 8.68298 15.8947 8.88224 15.9417C9.08149 15.9886 9.2899 15.979 9.484 15.914L15.324 13.95C15.4708 13.9012 15.6043 13.8191 15.714 13.71L20.882 8.54C21.2375 8.18453 21.5195 7.76251 21.712 7.29804C21.9044 6.83357 22.0034 6.33575 22.0034 5.833C22.0034 5.33025 21.9044 4.83243 21.712 4.36796C21.5195 3.90349 21.2375 3.47947 20.882 3.124ZM16.882 4.54C17.2249 4.19708 17.69 4.00442 18.175 4.00442C18.66 4.00442 19.1251 4.19708 19.468 4.54C19.8109 4.88292 20.0036 5.34803 20.0036 5.833C20.0036 6.31797 19.8109 6.78307 19.468 7.126L14.464 12.126L10.566 13.438L11.878 9.542L16.882 4.54Z" fill="url(#paint0_linear_1778_2155)"/>
<defs>
<linearGradient id="paint0_linear_1778_2155" x1="2" y1="12" x2="22.0034" y2="12" gradientUnits="userSpaceOnUse">
<stop stop-color="#6A3CFF"/>
<stop offset="0.4" stop-color="#B000FF"/>
<stop offset="0.75" stop-color="#FF1AAE"/>
<stop offset="1" stop-color="#FF4FA3"/>
</linearGradient>
</defs>
</svg>
